<svg width="33" height="33" viewBox="0 0 33 33" fill="none" xmlns="http://www.w3.org/2000/svg">
<path d="M16.5 33C25.6438 33 33 25.6438 33 16.5C33 7.35619 25.6438 0 16.5 0C7.35619 0 0 7.35619 0 16.5C0 25.6438 7.35619 33 16.5 33Z" fill="#2775CA"/>
<path d="M21.0375 19.1124C21.0375 16.7062 19.5937 15.8812 16.7062 15.5376C14.6437 15.2625 14.2312 14.7126 14.2312 13.7499C14.2312 12.7873 14.9188 12.1687 16.2937 12.1687C17.5312 12.1687 18.2188 12.5813 18.5625 13.6125C18.6313 13.8187 18.8376 13.9562 19.0438 13.9562H20.1437C20.4187 13.9562 20.625 13.7499 20.625 13.4751V13.4062C20.3499 11.8937 19.1124 10.725 17.5312 10.5876V8.93755C17.5312 8.6625 17.325 8.45625 16.9813 8.38744H15.9501C15.675 8.38744 15.4687 8.59369 15.3999 8.93755V10.5187C13.3374 10.7938 12.0313 12.1687 12.0313 13.8876C12.0313 16.1563 13.4062 17.0499 16.2937 17.3938C18.2188 17.7375 18.8376 18.15 18.8376 19.2501C18.8376 20.3501 17.8749 21.1063 16.5688 21.1063C14.7812 21.1063 14.1624 20.3499 13.9562 19.3187C13.8876 19.0438 13.6813 18.9062 13.4751 18.9062H12.3062C12.0313 18.9062 11.8251 19.1124 11.8251 19.3875V19.4563C12.0999 21.1749 13.2 22.4124 15.4688 22.7563V24.4063C15.4688 24.6812 15.675 24.8874 16.0187 24.9562H17.0499C17.325 24.9562 17.5312 24.75 17.6001 24.4063V22.7563C19.6626 22.4124 21.0375 20.9687 21.0375 19.1124Z" fill="white"/>
<path d="M12.9937 26.3312C7.63125 24.4063 4.8812 18.4251 6.87505 13.1312C7.9063 10.2437 10.1751 8.04375 12.9937 7.0125C13.2688 6.87505 13.4062 6.6688 13.4062 6.32494V5.3625C13.4062 5.08744 13.2688 4.8812 12.9937 4.81256C12.9249 4.81256 12.7875 4.81255 12.7187 4.88119C6.1875 6.94369 2.61244 13.8876 4.67494 20.4187C5.91244 24.2687 8.86875 27.225 12.7187 28.4625C12.9937 28.5999 13.2688 28.4625 13.3374 28.1874C13.4062 28.1188 13.4062 28.05 13.4062 27.9126V26.9499C13.4062 26.7437 13.2 26.4688 12.9937 26.3312ZM20.2813 4.88119C20.0063 4.74375 19.7312 4.8812 19.6626 5.15625C19.5938 5.22505 19.5938 5.29369 19.5938 5.4313V6.39375C19.5938 6.66881 19.8 6.94369 20.0063 7.0813C25.3687 9.0062 28.1188 14.9874 26.1249 20.2813C25.0937 23.1688 22.8249 25.3687 20.0063 26.4C19.7312 26.5374 19.5938 26.7437 19.5938 27.0876V28.05C19.5938 28.3251 19.7312 28.5313 20.0063 28.5999C20.0751 28.5999 20.2125 28.5999 20.2813 28.5313C26.8125 26.4688 30.3876 19.5249 28.3251 12.9937C27.0876 9.075 24.0624 6.11869 20.2813 4.88119Z" fill="white"/>
</svg>
