<svg width="25" height="26" viewBox="0 0 25 26" fill="none" xmlns="http://www.w3.org/2000/svg">
<g clip-path="url(#clip0_1_3587)">
<path d="M12.195 25.2943C18.9531 25.2943 24.39 19.8574 24.39 13.0993C24.39 6.34119 18.9531 0.904297 12.195 0.904297C5.4369 0.904297 0 6.34119 0 13.0993C0 19.8574 5.4369 25.2943 12.195 25.2943Z" fill="url(#paint0_linear_1_3587)"/>
<path fill-rule="evenodd" clip-rule="evenodd" d="M8.36133 6.48047L9.91512 6.89729V18.4126C12.9087 18.0053 14.4784 16.1766 14.7851 12.7517L14.794 12.6474L11.4481 11.7299V10.1308L16.3746 11.4817L16.3752 12.2674L16.3746 12.2916C16.3677 12.5578 16.3407 12.8155 16.314 13.0642C15.9172 16.762 14.1533 18.5806 12.1176 19.4132C10.8173 19.8742 9.56526 20.0922 8.36133 20.0673V6.48047ZM11.4463 7.30376L15.0824 8.27824V9.89407L11.4463 8.86546V7.30376Z" fill="white"/>
</g>
<defs>
<linearGradient id="paint0_linear_1_3587" x1="1.2195" y1="1.94958" x2="20.7315" y2="25.2943" gradientUnits="userSpaceOnUse">
<stop stop-color="#BAE1EB"/>
<stop offset="0.498917" stop-color="#757EE7"/>
<stop offset="1" stop-color="#2068F7"/>
</linearGradient>
<clipPath id="clip0_1_3587">
<rect width="24.39" height="24.39" fill="white" transform="translate(0 0.904297)"/>
</clipPath>
</defs>
</svg>
