<svg width="25" height="21" viewBox="0 0 25 21" fill="none" xmlns="http://www.w3.org/2000/svg">
<path d="M12.3906 24.9199C19.1489 24.9199 24.5859 19.4829 24.5859 12.7246C24.5859 5.96633 19.1489 0.529297 12.3906 0.529297C5.63234 0.529297 0.195312 5.96633 0.195312 12.7246C0.195312 19.4829 5.63234 24.9199 12.3906 24.9199Z" fill="#2775CA"/>
<path d="M15.7443 14.6555C15.7443 12.877 14.6772 12.2673 12.5431 12.0132C11.0186 11.8099 10.7138 11.4035 10.7138 10.692C10.7138 9.98053 11.2219 9.52333 12.2382 9.52333C13.1528 9.52333 13.661 9.82821 13.915 10.5904C13.9659 10.7429 14.1183 10.8444 14.2708 10.8444H15.0837C15.287 10.8444 15.4394 10.692 15.4394 10.4888V10.438C15.2361 9.32003 14.3215 8.45624 13.1528 8.35465V7.13512C13.1528 6.93183 13.0004 6.77939 12.7463 6.72853H11.9841C11.7808 6.72853 11.6284 6.88097 11.5776 7.13512V8.3038C10.0531 8.5071 9.08776 9.52333 9.08776 10.7937C9.08776 12.4706 10.104 13.1311 12.2382 13.3852C13.661 13.6392 14.1183 13.9441 14.1183 14.7572C14.1183 15.5702 13.4068 16.1292 12.4415 16.1292C11.1202 16.1292 10.6629 15.5701 10.5105 14.8079C10.4597 14.6047 10.3073 14.503 10.1548 14.503H9.29093C9.08776 14.503 8.93532 14.6555 8.93532 14.8588V14.9096C9.13849 16.1799 9.95155 17.0945 11.6284 17.3487V18.5682C11.6284 18.7714 11.7808 18.9238 12.0349 18.9747H12.7971C13.0004 18.9747 13.1528 18.8222 13.2037 18.5682V17.3487C14.7281 17.0945 15.7443 16.0274 15.7443 14.6555Z" fill="white"/>
<path d="M9.79911 19.9909C5.83564 18.5682 3.80305 14.1474 5.27673 10.2347C6.03893 8.1005 7.71579 6.47451 9.79911 5.7123C10.0024 5.61071 10.104 5.45827 10.104 5.20412V4.49277C10.104 4.28947 10.0024 4.13703 9.79911 4.0863C9.74826 4.0863 9.64667 4.0863 9.59582 4.13703C4.76855 5.66144 2.12619 10.7937 3.65061 15.621C4.56525 18.4665 6.75029 20.6515 9.59582 21.5662C9.79911 21.6678 10.0024 21.5662 10.0531 21.3629C10.104 21.3122 10.104 21.2613 10.104 21.1597V20.4482C10.104 20.2958 9.95155 20.0926 9.79911 19.9909ZM15.1854 4.13703C14.9821 4.03545 14.7788 4.13703 14.7281 4.34033C14.6772 4.39118 14.6772 4.44192 14.6772 4.54362V5.25498C14.6772 5.45827 14.8297 5.66144 14.9821 5.76315C18.9456 7.18586 20.9782 11.6067 19.5045 15.5194C18.7423 17.6536 17.0654 19.2796 14.9821 20.0418C14.7788 20.1434 14.6772 20.2958 14.6772 20.55V21.2613C14.6772 21.4646 14.7788 21.617 14.9821 21.6678C15.033 21.6678 15.1346 21.6678 15.1854 21.617C20.0127 20.0926 22.655 14.9604 21.1306 10.1331C20.216 7.23671 17.9801 5.05168 15.1854 4.13703Z" fill="white"/>
</svg>
