<?xml version="1.0" encoding="UTF-8"?>

<svg width="35" height="36" viewBox="0 0 35 36" fill="none" xmlns="http://www.w3.org/2000/svg">
<circle cx="17.5" cy="18" r="17.5" fill="#F9FAFA"/>
<path d="M18.2317 28.36C16.4877 28.36 14.9597 28.104 13.6477 27.592C12.3517 27.064 11.3277 26.328 10.5757 25.384C9.83972 24.44 9.45572 23.352 9.42372 22.12H13.4077C13.5197 23.096 13.9997 23.872 14.8477 24.448C15.7117 25.008 16.8637 25.288 18.3037 25.288C19.6637 25.288 20.6957 25.072 21.3997 24.64C22.1197 24.208 22.4797 23.64 22.4797 22.936C22.4797 22.52 22.3677 22.168 22.1437 21.88C21.9357 21.592 21.5677 21.352 21.0397 21.16C20.5277 20.952 19.8077 20.808 18.8797 20.728L16.3597 20.488C14.0717 20.28 12.3837 19.72 11.2957 18.808C10.2077 17.896 9.66372 16.688 9.66372 15.184C9.66372 14.032 9.99172 13.048 10.6477 12.232C11.3197 11.4 12.2557 10.76 13.4557 10.312C14.6557 9.864 16.0717 9.64 17.7037 9.64C19.3357 9.64 20.7597 9.888 21.9757 10.384C23.2077 10.864 24.1757 11.544 24.8797 12.424C25.5837 13.288 25.9677 14.304 26.0317 15.472H22.0717C21.9757 14.672 21.5677 14.016 20.8477 13.504C20.1277 12.976 19.0637 12.712 17.6557 12.712C16.3597 12.712 15.3677 12.92 14.6797 13.336C14.0077 13.752 13.6717 14.32 13.6717 15.04C13.6717 15.376 13.7677 15.688 13.9597 15.976C14.1517 16.248 14.4877 16.472 14.9677 16.648C15.4477 16.824 16.1037 16.952 16.9357 17.032L19.6717 17.272C21.3197 17.416 22.6397 17.712 23.6317 18.16C24.6397 18.592 25.3677 19.168 25.8157 19.888C26.2637 20.608 26.4877 21.48 26.4877 22.504C26.4877 23.64 26.1517 24.656 25.4797 25.552C24.8077 26.432 23.8557 27.12 22.6237 27.616C21.3917 28.112 19.9277 28.36 18.2317 28.36ZM19.4317 8.032V29.968H16.4317V8.032H19.4317Z" fill="url(#paint0_linear_2_21629)"/>
<defs>
<linearGradient id="paint0_linear_2_21629" x1="9" y1="4" x2="28.5613" y2="5.18325" gradientUnits="userSpaceOnUse">
<stop offset="0.155832" stop-color="#5A50CF"/>
<stop offset="0.482452" stop-color="#453CC4"/>
<stop offset="1" stop-color="#C79BEA"/>
</linearGradient>
</defs>
</svg>
