<svg width="36" height="36" viewBox="0 0 36 36" fill="none" xmlns="http://www.w3.org/2000/svg">
<circle cx="17.548" cy="17.9992" r="17.548" fill="#494979"/>
<path d="M17.1 24.998H18.85V23.748C19.6833 23.598 20.4 23.273 21 22.773C21.6 22.273 21.9 21.5314 21.9 20.548C21.9 19.848 21.7 19.2064 21.3 18.623C20.9 18.0397 20.1 17.5314 18.9 17.098C17.9 16.7647 17.2083 16.473 16.825 16.223C16.4417 15.973 16.25 15.6314 16.25 15.198C16.25 14.7647 16.4042 14.423 16.7125 14.173C17.0208 13.923 17.4667 13.798 18.05 13.798C18.5833 13.798 19 13.9272 19.3 14.1855C19.6 14.4439 19.8167 14.7647 19.95 15.148L21.55 14.498C21.3667 13.9147 21.0292 13.4064 20.5375 12.973C20.0458 12.5397 19.5 12.298 18.9 12.248V10.998H17.15V12.248C16.3167 12.4314 15.6667 12.798 15.2 13.348C14.7333 13.898 14.5 14.5147 14.5 15.198C14.5 15.9814 14.7292 16.6147 15.1875 17.098C15.6458 17.5814 16.3667 17.998 17.35 18.348C18.4 18.7314 19.1292 19.073 19.5375 19.373C19.9458 19.673 20.15 20.0647 20.15 20.548C20.15 21.098 19.9542 21.5022 19.5625 21.7605C19.1708 22.0189 18.7 22.148 18.15 22.148C17.6 22.148 17.1125 21.9772 16.6875 21.6355C16.2625 21.2939 15.95 20.7814 15.75 20.098L14.1 20.748C14.3333 21.548 14.6958 22.1939 15.1875 22.6855C15.6792 23.1772 16.3167 23.5147 17.1 23.698V24.998ZM18 27.998C16.6167 27.998 15.3167 27.7355 14.1 27.2105C12.8833 26.6855 11.825 25.973 10.925 25.073C10.025 24.173 9.3125 23.1147 8.7875 21.898C8.2625 20.6814 8 19.3814 8 17.998C8 16.6147 8.2625 15.3147 8.7875 14.098C9.3125 12.8814 10.025 11.823 10.925 10.923C11.825 10.023 12.8833 9.31055 14.1 8.78555C15.3167 8.26055 16.6167 7.99805 18 7.99805C19.3833 7.99805 20.6833 8.26055 21.9 8.78555C23.1167 9.31055 24.175 10.023 25.075 10.923C25.975 11.823 26.6875 12.8814 27.2125 14.098C27.7375 15.3147 28 16.6147 28 17.998C28 19.3814 27.7375 20.6814 27.2125 21.898C26.6875 23.1147 25.975 24.173 25.075 25.073C24.175 25.973 23.1167 26.6855 21.9 27.2105C20.6833 27.7355 19.3833 27.998 18 27.998Z" fill="white"/>
</svg>
