<svg width="35" height="34" viewBox="0 0 35 34" fill="none" xmlns="http://www.w3.org/2000/svg">
<circle cx="17.3242" cy="17" r="17" fill="#171723"/>
<path d="M16.6272 25.0612H13.534C10.6545 25.0612 9.37305 23.736 9.37305 20.758V17.5591C9.37305 14.5811 10.6545 13.2559 13.534 13.2559H16.6272C19.5067 13.2559 20.7881 14.5811 20.7881 17.5591V20.758C20.7881 23.736 19.5067 25.0612 16.6272 25.0612ZM13.534 14.3983C11.251 14.3983 10.4777 15.198 10.4777 17.5591V20.758C10.4777 23.119 11.251 23.9187 13.534 23.9187H16.6272C18.9102 23.9187 19.6835 23.119 19.6835 20.758V17.5591C19.6835 15.198 18.9102 14.3983 16.6272 14.3983H13.534Z" fill="white"/>
<path d="M21.0451 20.4889H20.235C19.9331 20.4889 19.6827 20.23 19.6827 19.9177V17.5566C19.6827 15.1956 18.9094 14.3959 16.6264 14.3959H14.3434C14.0414 14.3959 13.791 14.1369 13.791 13.8246V12.9868C13.791 10.0088 15.0725 8.68359 17.952 8.68359H21.0451C23.9247 8.68359 25.2061 10.0088 25.2061 12.9868V16.1857C25.2061 19.1637 23.9247 20.4889 21.0451 20.4889ZM20.7874 19.3465H21.0451C23.3281 19.3465 24.1014 18.5468 24.1014 16.1857V12.9868C24.1014 10.6258 23.3281 9.82605 21.0451 9.82605H17.952C15.669 9.82605 14.8957 10.6258 14.8957 12.9868V13.2534H16.6264C19.5059 13.2534 20.7874 14.5786 20.7874 17.5566V19.3465Z" fill="white"/>
</svg>
