<svg width="35" height="35" viewBox="0 0 35 35" fill="none" xmlns="http://www.w3.org/2000/svg">
<circle cx="17.3242" cy="17.043" r="17" fill="#171723"/>
<path d="M19.4369 25.7925H19.3339C15.8154 25.7925 14.1195 24.3583 13.8263 21.1457C13.7946 20.8097 14.0324 20.5064 14.3652 20.4736C14.6822 20.4409 14.9833 20.6949 15.015 21.0309C15.2448 23.6043 16.4176 24.5632 19.3418 24.5632H19.4448C22.6701 24.5632 23.8113 23.383 23.8113 20.0475V14.704C23.8113 11.3685 22.6701 10.1883 19.4448 10.1883H19.3418C16.4018 10.1883 15.229 11.1636 15.015 13.7861C14.9754 14.1221 14.698 14.3762 14.3652 14.3434C14.2871 14.3371 14.211 14.3149 14.1412 14.2781C14.0714 14.2413 14.0093 14.1906 13.9585 14.1289C13.9077 14.0672 13.8692 13.9958 13.8451 13.9187C13.8211 13.8416 13.812 13.7603 13.8184 13.6796C14.0878 10.4178 15.7916 8.95898 19.3339 8.95898H19.4369C23.3279 8.95898 24.992 10.68 24.992 14.704V20.0475C24.992 24.0715 23.3279 25.7925 19.4369 25.7925Z" fill="white"/>
<path d="M19.2472 17.991H10.2291C9.9042 17.991 9.63477 17.7124 9.63477 17.3764C9.63477 17.0404 9.9042 16.7617 10.2291 16.7617H19.2472C19.5722 16.7617 19.8416 17.0404 19.8416 17.3764C19.8416 17.7124 19.5722 17.991 19.2472 17.991Z" fill="white"/>
<path d="M11.9972 20.7339C11.8467 20.7339 11.6961 20.6765 11.5772 20.5536L8.92252 17.8081C8.81199 17.6924 8.75 17.5363 8.75 17.3737C8.75 17.2111 8.81199 17.055 8.92252 16.9394L11.5772 14.1939C11.8071 13.9562 12.1874 13.9562 12.4172 14.1939C12.6471 14.4315 12.6471 14.8249 12.4172 15.0626L10.1825 17.3737L12.4172 19.6849C12.6471 19.9225 12.6471 20.3159 12.4172 20.5536C12.3063 20.6765 12.1478 20.7339 11.9972 20.7339Z" fill="white"/>
</svg>
