<svg width="36" height="36" viewBox="0 0 36 36" fill="none" xmlns="http://www.w3.org/2000/svg">
<circle cx="17.548" cy="17.9992" r="17.548" fill="#494979"/>
<path d="M12.8182 27.998C12.3182 27.998 11.8902 27.82 11.5341 27.464C11.178 27.1079 11 26.6799 11 26.1799V9.81623C11 9.31623 11.178 8.8882 11.5341 8.53214C11.8902 8.17608 12.3182 7.99805 12.8182 7.99805H21.9091C22.4091 7.99805 22.8371 8.17608 23.1932 8.53214C23.5492 8.8882 23.7273 9.31623 23.7273 9.81623V26.1799C23.7273 26.6799 23.5492 27.1079 23.1932 27.464C22.8371 27.82 22.4091 27.998 21.9091 27.998H12.8182ZM17.3636 25.7253C17.6212 25.7253 17.8371 25.6382 18.0114 25.464C18.1856 25.2897 18.2727 25.0738 18.2727 24.8162C18.2727 24.5587 18.1856 24.3427 18.0114 24.1685C17.8371 23.9943 17.6212 23.9071 17.3636 23.9071C17.1061 23.9071 16.8902 23.9943 16.7159 24.1685C16.5417 24.3427 16.4545 24.5587 16.4545 24.8162C16.4545 25.0738 16.5417 25.2897 16.7159 25.464C16.8902 25.6382 17.1061 25.7253 17.3636 25.7253ZM12.8182 21.6344H21.9091V12.5435H12.8182V21.6344Z" fill="white"/>
</svg>
